<svg xmlns="http://www.w3.org/2000/svg" width="24" height="24" fill="none" viewBox="0 0 24 24" id="reel">
  <path fill="#000" fill-rule="evenodd" d="M1.5 6C1.5 3.51472 3.51472 1.5 6 1.5H18C20.4853 1.5 22.5 3.51472 22.5 6V18C22.5 20.4853 20.4853 22.5 18 22.5H6C3.51472 22.5 1.5 20.4853 1.5 18V6ZM6 2.5C4.067 2.5 2.5 4.067 2.5 6V18C2.5 19.933 4.067 21.5 6 21.5H18C19.933 21.5 21.5 19.933 21.5 18V6C21.5 4.067 19.933 2.5 18 2.5H6Z" clip-rule="evenodd"></path>
  <path fill="#000" fill-rule="evenodd" d="M9.80902 11.5C9.63835 11.5 9.5 11.6384 9.5 11.809V16.191C9.5 16.3616 9.63835 16.5 9.80902 16.5 9.85699 16.5 9.9043 16.4888 9.94721 16.4674L14.3292 14.2764C14.4339 14.224 14.5 14.117 14.5 14 14.5 13.883 14.4339 13.776 14.3292 13.7236L9.94721 11.5326C9.9043 11.5112 9.85699 11.5 9.80902 11.5zM8.5 11.809C8.5 11.0861 9.08607 10.5 9.80902 10.5 10.0122 10.5 10.2127 10.5473 10.3944 10.6382L14.7764 12.8292C15.2199 13.0509 15.5 13.5042 15.5 14 15.5 14.4958 15.2199 14.9491 14.7764 15.1708L10.3944 17.3618C10.2127 17.4527 10.0122 17.5 9.80902 17.5 9.08607 17.5 8.5 16.9139 8.5 16.191V11.809zM1.5 8C1.5 7.72386 1.72386 7.5 2 7.5H22C22.2761 7.5 22.5 7.72386 22.5 8 22.5 8.27614 22.2761 8.5 22 8.5H2C1.72386 8.5 1.5 8.27614 1.5 8z" clip-rule="evenodd"></path>
  <path fill="#000" fill-rule="evenodd" d="M10.1582 1.52566C10.4202 1.61298 10.5618 1.89614 10.4745 2.15811L8.47448 8.15811C8.38715 8.42008 8.10399 8.56166 7.84202 8.47434 7.58005 8.38702 7.43847 8.10386 7.52579 7.84188L9.52579 1.84188C9.61312 1.57991 9.89628 1.43833 10.1582 1.52566zM16.1582 1.52566C16.4202 1.61298 16.5618 1.89614 16.4745 2.15811L14.4745 8.15811C14.3872 8.42008 14.104 8.56166 13.842 8.47434 13.5801 8.38702 13.4385 8.10386 13.5258 7.84188L15.5258 1.84188C15.6131 1.57991 15.8963 1.43833 16.1582 1.52566z" clip-rule="evenodd"></path>
</svg>
